<?xml version="1.0" encoding="UTF-8" standalone="no"?>
<svg
   data-name="Layer 1"
   width="869.99994"
   height="520.13854"
   viewBox="0 0 869.99994 520.13854"
   version="1.1"
   id="svg20"
   sodipodi:docname="pict-login-back.svg"
   inkscape:version="1.3 (0e150ed6c4, 2023-07-21)"
   xmlns:inkscape="http://www.inkscape.org/namespaces/inkscape"
   xmlns:sodipodi="http://sodipodi.sourceforge.net/DTD/sodipodi-0.dtd"
   xmlns="http://www.w3.org/2000/svg"
   xmlns:svg="http://www.w3.org/2000/svg">
  <defs
     id="defs20" />
  <sodipodi:namedview
     id="namedview20"
     pagecolor="#ffffff"
     bordercolor="#000000"
     borderopacity="0.25"
     inkscape:showpageshadow="2"
     inkscape:pageopacity="0.0"
     inkscape:pagecheckerboard="0"
     inkscape:deskcolor="#d1d1d1"
     showgrid="false"
     inkscape:zoom="1.4938327"
     inkscape:cx="435.45705"
     inkscape:cy="254.0445"
     inkscape:window-width="1920"
     inkscape:window-height="991"
     inkscape:window-x="-9"
     inkscape:window-y="-9"
     inkscape:window-maximized="1"
     inkscape:current-layer="svg20" />
  <path
     d="m 203.90755,514.25664 c 11.13833,-9.4118 17.90393,-24.27967 16.12965,-38.75366 -1.77428,-14.47399 -12.76358,-27.78 -27.01831,-30.85364 -14.25473,-3.07364 -30.50415,5.43465 -34.83378,19.3594 -2.3828,-26.84637 -5.12854,-54.81757 -19.40179,-77.67976 -12.92407,-20.70115 -35.3088,-35.51364 -59.568799,-38.16357 -24.26,-2.64993 -49.80265,7.35859 -64.93272,26.50671 -15.13007035,19.14812 -18.8346103,46.98549 -8.2379003,68.96911 7.8062303,16.19456 22.1880003,28.24676 37.2566003,38.05184 a 240.45181,240.45181 0 0 0 164.453759,35.97709 z"
     fill="#f2f2f2"
     id="path1" />
  <path
     d="m 38.272091,356.0788 a 393.41394,393.41394 0 0 1 54.82622,54.44229 394.561,394.561 0 0 1 61.751999,103.194 c 1.112,2.72484 -3.31272,3.911 -4.4123,1.21642 A 392.34209,392.34209 0 0 0 35.036541,359.31434 c -2.28437,-1.86015 0.97,-5.08035 3.23555,-3.23554 z"
     fill="#ffffff"
     id="path2" />
  <path
     d="m 589.93285,511.69941 c -15.2985,-12.92712 -24.591,-33.34815 -22.15408,-53.22817 2.43692,-19.88002 17.53079,-38.15588 37.10966,-42.37749 19.57887,-4.22161 41.89745,7.46449 47.8442,26.59014 3.27278,-36.87349 7.04406,-75.29195 26.64837,-106.69317 17.75122,-28.433 48.49666,-48.778 81.81777,-52.41768 33.32111,-3.63968 68.40395,10.107 89.18511,36.407 20.78116,26.3 25.86934,64.53459 11.31476,94.72909 -10.72185,22.24324 -30.47528,38.79693 -51.17195,52.26422 -66.02954,42.9653 -147.93912,60.88443 -225.8773,49.41454"
     fill="#f2f2f2"
     id="path3" />
  <path
     d="m 817.43321,294.44208 a 540.35491,540.35491 0 0 0 -75.30383,74.77651 548.0761,548.0761 0 0 0 -59.38606,87.89068 545.835,545.835 0 0 0 -25.43041,53.8463 c -1.52726,3.74257 4.55,5.37169 6.06031,1.67075 a 536.35952,536.35952 0 0 1 49.009,-92.727 539.73411,539.73411 0 0 1 65.72875,-81.19837 538.44066,538.44066 0 0 1 43.76626,-39.81484 c 3.13759,-2.55492 -1.33232,-6.97788 -4.444,-4.444 z"
     fill="#ffffff"
     id="path4" />
  <path
     d="m 245.49997,519 h 365 V 144.5 C 610.49997,64.82227 545.6777,0 466.00021,0 H 389.99972 C 310.32223,0 245.49997,64.82227 245.49997,144.5 Z"
     fill="#f2f2f2"
     id="path5" />
  <path
     d="m 321.49997,519 h 289 V 144.5 A 143.38177,143.38177 0 0 0 582.90426,59.55566 c -0.66381,-0.90478 -1.32592,-1.79785 -2.00878,-2.68115 A 144.46633,144.46633 0 0 0 550.14133,27.02393 c -0.65967,-0.48 -1.322,-0.95166 -1.99415,-1.42334 A 144.15958,144.15958 0 0 0 516.67502,9.14159 C 516.01413,8.8911 515.34128,8.64013 514.66843,8.3994 a 144.01979,144.01979 0 0 0 -31.1084,-7.33593 c -0.65772,-0.08985 -1.333,-0.16016 -2.0083,-0.23047 a 146.28769,146.28769 0 0 0 -31.10547,0 c -0.67334,0.07031 -1.34864,0.14062 -2.01416,0.23144 a 143.995,143.995 0 0 0 -31.10034,7.335 c -0.6731,0.24073 -1.346,0.4917 -2.00879,0.74268 a 143.79947,143.79947 0 0 0 -31.10645,16.21582 c -0.67163,0.46143 -1.344,0.93311 -2.00635,1.40478 a 145.987,145.987 0 0 0 -18.38354,15.564 144.305,144.305 0 0 0 -12.72437,14.55078 c -0.68066,0.88037 -1.34277,1.77344 -2.00537,2.67676 A 143.38227,143.38227 0 0 0 321.49997,144.5 Z"
     fill="#cccccc"
     id="path6" />
  <circle
     cx="-345"
     cy="335.5"
     r="16"
     fill="#f50057"
     id="circle6"
     transform="scale(-1,1)" />
  <polygon
     points="594.601,460.496 594.599,507.783 582.339,507.783 576.506,460.495 "
     fill="#ffb8b8"
     id="polygon6"
     transform="matrix(-1,0,0,1,869.99994,0)" />
  <path
     d="m 296.41829,504.27982 h -23.64384 v 14.88687 h 38.53071 v 0 a 14.88688,14.88688 0 0 0 -14.88688,-14.88688 z"
     fill="#2f2e41"
     id="path7" />
  <polygon
     points="655.601,460.496 655.599,507.783 643.339,507.783 637.506,460.495 "
     fill="#ffb8b8"
     id="polygon7"
     transform="matrix(-1,0,0,1,869.99994,0)" />
  <path
     d="m 235.41829,504.27982 h -23.64384 v 14.88687 h 38.53071 v 0 a 14.88688,14.88688 0 0 0 -14.88688,-14.88688 z"
     fill="#2f2e41"
     id="path8" />
  <path
     d="m 336.90239,338.66962 a 10.74272,10.74272 0 0 0 -4.51052,-15.84307 l -41.67577,-114.86667 -20.50713,11.19139 47.58476,109.77071 a 10.80091,10.80091 0 0 0 19.10866,9.74764 z"
     fill="#ffb8b8"
     id="path9" />
  <path
     d="m 220.66353,360.25357 a 10.74269,10.74269 0 0 0 2.89305,-16.21659 l 12.91076,-121.50941 -23.33776,1.06622 -5.36567,119.52048 a 10.80091,10.80091 0 0 0 12.89962,17.13934 z"
     fill="#ffb8b8"
     id="path10" />
  <circle
     cx="-257.89417"
     cy="162.12254"
     r="24.561029"
     fill="#ffb8b8"
     id="circle10"
     transform="scale(-1,1)" />
  <path
     d="m 220.82039,332.61864 h 74.04687 l -0.0891,-0.57617 c -0.13306,-0.86133 -13.19678,-86.439 -3.56177,-114.436 a 11.813,11.813 0 0 0 -6.06933,-14.5835 h -2.5e-4 c -13.77173,-6.48535 -40.20752,-14.47119 -62.52,4.90918 a 28.23448,28.23448 0 0 0 -9.45947,23.396 z"
     fill="#f50057"
     id="path11" />
  <path
     d="m 280.64558,258.25047 33.33667,-6.7632 -15.62622,-37.02978 a 13.99723,13.99723 0 0 0 -27.10571,6.99755 z"
     fill="#f50057"
     id="path12" />
  <path
     d="m 237.94954,270.80809 2.00415,-45.94141 c 1.51977,-8.63623 -3.42408,-16.80029 -11.02735,-18.13476 -7.60547,-1.32959 -15.03174,4.66016 -16.55835,13.35986 l -7.533,42.92774 z"
     fill="#f50057"
     id="path13" />
  <path
     d="m 223.28391,327.1186 c -11.91455,45.37671 -13.21436,103.0694 -10,166 l 16,-2 29,-120 16,122 18,-1 c 5.37744,-66.02972 10.61328,-122.71527 2,-160 z"
     fill="#2f2e41"
     id="path14" />
  <path
     d="m 241.71087,181.10401 c 4.582,4.88079 13.09131,2.26067 13.68835,-4.40717 a 8.05467,8.05467 0 0 0 -0.0101,-1.55569 c -0.30826,-2.95357 -2.01461,-5.63506 -1.60587,-8.7536 a 4.59046,4.59046 0 0 1 0.84011,-2.14892 c 3.65124,-4.88933 12.22227,2.18687 15.6682,-2.23929 2.113,-2.714 -0.3708,-6.98713 1.25065,-10.02051 2.14006,-4.00358 8.47881,-2.0286 12.45388,-4.22116 4.42275,-2.43948 4.15822,-9.22524 1.24686,-13.35269 -3.55052,-5.03359 -9.77572,-7.71951 -15.92336,-8.10661 -6.14764,-0.3871 -12.25292,1.27475 -17.99229,3.51145 -6.52109,2.54134 -12.98768,6.05351 -17.00067,11.78753 -4.88021,6.97317 -5.34986,16.34793 -2.90917,24.50174 1.4847,4.96005 6.55178,11.01924 10.29345,15.00492 z"
     fill="#2f2e41"
     id="path15" />
  <path
     d="M 30.018341,519.64344 H 768.31234 a 1.19069,1.19069 0 0 0 0,-2.38137 H 30.018341 a 1.19069,1.19069 0 0 0 0,2.38137 z"
     fill="#3f3d56"
     id="path16" />
  <path
     d="m 400.99997,410.5 h 130 a 6.46539,6.46539 0 0 0 6.5,-6.41531 V 113.91527 a 6.46539,6.46539 0 0 0 -6.5,-6.41531 h -130 a 6.46539,6.46539 0 0 0 -6.5,6.41531 v 290.16942 a 6.46539,6.46539 0 0 0 6.5,6.41531 z"
     fill="#ffffff"
     id="path17" />
  <rect
     x="-537.5"
     y="201.38965"
     width="143"
     height="2"
     fill="#cccccc"
     id="rect17"
     transform="scale(-1,1)" />
  <rect
     x="-537"
     y="315.5"
     width="143"
     height="2"
     fill="#cccccc"
     id="rect18"
     transform="scale(-1,1)" />
  <rect
     x="-492.49997"
     y="107.5"
     width="2"
     height="304"
     fill="#cccccc"
     id="rect19"
     transform="scale(-1,1)" />
  <rect
     x="-442.5"
     y="107.5"
     width="2"
     height="304"
     fill="#cccccc"
     id="rect20"
     transform="scale(-1,1)" />
</svg>
